{"asset":{"version":"2.0","generator":"Sail the World - HSC Adler Cat inspired"},"scene":0,"scenes":[{"nodes":[0,1,2,3,4,5,6,7,8,9,10,11,12,13,14,15,16,17,18,19,20,21,22,23,24,25,26,27,28,29,30,31,32,33,34,35]}],"nodes":[{"name":"lower hull","mesh":7,"translation":[1,-3.25,0],"scale":[28,2.4,2.2]},{"name":"upper hull","mesh":6,"translation":[0.2,-3.25,1.55],"scale":[25.5,2.75,1.55]},{"name":"lower hull","mesh":7,"translation":[1,3.25,0],"scale":[28,2.4,2.2]},{"name":"upper hull","mesh":6,"translation":[0.2,3.25,1.55],"scale":[25.5,2.75,1.55]},{"name":"bridge deck","mesh":6,"translation":[-0.2,0,2.55],"scale":[22,8.5,1]},{"name":"saloon","mesh":6,"translation":[-1,0,4],"scale":[18.5,7.2,2]},{"name":"dark window band","mesh":8,"translation":[-0.4,0,5.15],"scale":[17,7.26,1.45]},{"name":"saloon roof","mesh":6,"translation":[-0.7,0,6.1],"scale":[17.5,7.5,0.4]},{"name":"forward superstructure","mesh":6,"translation":[5,0,6.6],"scale":[7.2,6.3,2.3]},{"name":"bridge glazing","mesh":8,"translation":[5.8,0,7.35],"scale":[5.8,6.35,1.15]},{"name":"bridge roof","mesh":6,"translation":[5,0,8.15],"scale":[7.4,6.55,0.35]},{"name":"upper bridge","mesh":6,"translation":[3.5,0,8.8],"scale":[4.8,5,1.1]},{"name":"upper bridge glass","mesh":8,"translation":[4.15,0,9.05],"scale":[3.4,5.05,0.65]},{"name":"hardtop","mesh":0,"translation":[3.35,0,9.6],"scale":[5.2,5.3,0.3]},{"name":"aft deck","mesh":0,"translation":[-11.7,0,2.8],"scale":[4.8,8.5,0.5]},{"name":"stern platform","mesh":0,"translation":[-14.2,0,1.75],"scale":[2,8.1,0.35]},{"name":"black side band","mesh":7,"translation":[-1,-3.78,4.75],"scale":[17,0.22,1.55]},{"name":"gold accent","mesh":9,"translation":[-7.8,-3.78,3.7],"scale":[5.4,0.25,2.25]},{"name":"black side band","mesh":7,"translation":[-1,3.78,4.75],"scale":[17,0.22,1.55]},{"name":"gold accent","mesh":9,"translation":[-7.8,3.78,3.7],"scale":[5.4,0.25,2.25]},{"name":"rescue boat","mesh":10,"translation":[-8,3.9,6.9],"scale":[4,1.2,0.75]},{"name":"rescue cradle","mesh":5,"translation":[-8,3.4,6.45],"scale":[4,0.28,0.18]},{"name":"mast","mesh":5,"translation":[2,0,12],"scale":[0.18,0.18,5]},{"name":"radar","mesh":0,"translation":[2,0,12.8],"scale":[3.3,0.18,0.16]},{"name":"radome","mesh":0,"translation":[0.25,-1.2,10.45],"scale":[0.85,0.85,0.7]},{"name":"radome","mesh":0,"translation":[0.25,1.2,10.45],"scale":[0.85,0.85,0.7]},{"name":"aft rail","mesh":5,"translation":[-10.8,-4.1,4.1],"scale":[6.7,0.06,0.06]},{"name":"rail post","mesh":5,"translation":[-13,-4.1,3.65],"scale":[0.06,0.06,0.9]},{"name":"rail post","mesh":5,"translation":[-11.5,-4.1,3.65],"scale":[0.06,0.06,0.9]},{"name":"rail post","mesh":5,"translation":[-10,-4.1,3.65],"scale":[0.06,0.06,0.9]},{"name":"rail post","mesh":5,"translation":[-8.5,-4.1,3.65],"scale":[0.06,0.06,0.9]},{"name":"aft rail","mesh":5,"translation":[-10.8,4.1,4.1],"scale":[6.7,0.06,0.06]},{"name":"rail post","mesh":5,"translation":[-13,4.1,3.65],"scale":[0.06,0.06,0.9]},{"name":"rail post","mesh":5,"translation":[-11.5,4.1,3.65],"scale":[0.06,0.06,0.9]},{"name":"rail post","mesh":5,"translation":[-10,4.1,3.65],"scale":[0.06,0.06,0.9]},{"name":"rail post","mesh":5,"translation":[-8.5,4.1,3.65],"scale":[0.06,0.06,0.9]}],"meshes":[{"primitives":[{"attributes":{"POSITION":0},"indices":1,"material":0}]},{"primitives":[{"attributes":{"POSITION":0},"indices":1,"material":1}]},{"primitives":[{"attributes":{"POSITION":0},"indices":1,"material":2}]},{"primitives":[{"attributes":{"POSITION":0},"indices":1,"material":3}]},{"primitives":[{"attributes":{"POSITION":0},"indices":1,"material":4}]},{"primitives":[{"attributes":{"POSITION":0},"indices":1,"material":5}]},{"primitives":[{"attributes":{"POSITION":2},"indices":3,"material":0}]},{"primitives":[{"attributes":{"POSITION":2},"indices":3,"material":1}]},{"primitives":[{"attributes":{"POSITION":2},"indices":3,"material":2}]},{"primitives":[{"attributes":{"POSITION":2},"indices":3,"material":3}]},{"primitives":[{"attributes":{"POSITION":2},"indices":3,"material":4}]},{"primitives":[{"attributes":{"POSITION":2},"indices":3,"material":5}]}],"materials":[{"name":"white","pbrMetallicRoughness":{"baseColorFactor":[0.96,0.97,0.98,1],"metallicFactor":0.03,"roughnessFactor":0.32}},{"name":"black","pbrMetallicRoughness":{"baseColorFactor":[0.012,0.02,0.025,1],"metallicFactor":0.08,"roughnessFactor":0.28}},{"name":"glass","pbrMetallicRoughness":{"baseColorFactor":[0.01,0.06,0.085,0.9],"metallicFactor":0.04,"roughnessFactor":0.14},"alphaMode":"BLEND"},{"name":"gold","pbrMetallicRoughness":{"baseColorFactor":[0.96,0.6,0.02,1],"metallicFactor":0.03,"roughnessFactor":0.34}},{"name":"orange","pbrMetallicRoughness":{"baseColorFactor":[1,0.16,0.02,1],"metallicFactor":0.02,"roughnessFactor":0.34}},{"name":"metal","pbrMetallicRoughness":{"baseColorFactor":[0.55,0.6,0.62,1],"metallicFactor":0.35,"roughnessFactor":0.25}}],"buffers":[{"uri":"data:application/octet-stream;base64,","byteLength":336}],"bufferViews":[{"buffer":0,"byteOffset":0,"byteLength":96,"target":34962},{"buffer":0,"byteOffset":96,"byteLength":72,"target":34963},{"buffer":0,"byteOffset":168,"byteLength":96,"target":34962},{"buffer":0,"byteOffset":264,"byteLength":72,"target":34963}],"accessors":[{"bufferView":0,"componentType":5126,"count":8,"type":"VEC3","min":[-0.5,-0.5,-0.5],"max":[0.5,0.5,0.5]},{"bufferView":1,"componentType":5123,"count":36,"type":"SCALAR"},{"bufferView":2,"componentType":5126,"count":8,"type":"VEC3","min":[-0.5,-0.5,-0.5],"max":[0.5,0.5,0.5]},{"bufferView":3,"componentType":5123,"count":36,"type":"SCALAR"}]}